# xmcd
#
# Track frame offsets:
# 180
# 11986
# 23184
# 34532
# 48319
# 58812
# 71364
# 81469
# 91738
# 102836
#
# Disc length: 1512 seconds
#
#
# Revision: 0
# Processed by: cddbd v1.4PL0 Copyright (c) Steve Scherf et al.
# Submitted via: FreeRIP 2.11 
#
DISCID=7a05e60a
DTITLE=Patsy Cline - Today, Tomorrow and Forever
DYEAR=1947
DGENRE=Country
TTITLE0=Today, Tomorrow and Forever
TTITLE1=Stop the World
TTITLE2=Just Out of Reach
TTITLE3=A Church, A Coutrooom and then Goodbye
TTITLE4=Lovesick Blues
TTITLE5=Fingerprints
TTITLE6=3 Cigarettes in an Ashtry
TTITLE7=Walking Dream
TTITLE8=Don't Ever Leave Me Again
TTITLE9=I Don't Wanta
EXTD=
EXTT0=
EXTT1=
EXTT2=
EXTT3=
EXTT4=
EXTT5=
EXTT6=
EXTT7=
EXTT8=
EXTT9=
PLAYORDER=
